<?xml version="1.0" standalone="no"?>
<!DOCTYPE svg PUBLIC "-//W3C//DTD SVG 20010904//EN"
 "http://www.w3.org/TR/2001/REC-SVG-20010904/DTD/svg10.dtd">
<svg version="1.0" xmlns="http://www.w3.org/2000/svg"
 width="700.000000pt" height="700.000000pt" viewBox="0 0 700.000000 700.000000"
 preserveAspectRatio="xMidYMid meet">
<metadata>
Created by potrace 1.14, written by Peter Selinger 2001-2017
</metadata>
<g transform="translate(0.000000,700.000000) scale(0.100000,-0.100000)"
fill="#000000" stroke="none">
<path fill="#1ea262" d="M3308 6995 c-1 -1 -37 -5 -78 -8 -173 -14 -427 -57 -580 -99 -96 -26
-316 -96 -355 -113 -16 -7 -46 -18 -65 -26 -129 -47 -412 -190 -518 -260 -24
-16 -46 -29 -49 -29 -8 0 -186 -125 -263 -184 -157 -121 -366 -315 -470 -436
-12 -14 -36 -41 -54 -60 -129 -140 -338 -453 -457 -685 -101 -198 -233 -538
-264 -681 -2 -11 -15 -71 -30 -134 -26 -119 -43 -213 -51 -290 -3 -25 -7 -55
-10 -67 -18 -89 -26 -524 -11 -688 9 -107 17 -175 23 -203 3 -13 7 -43 10 -65
3 -23 12 -73 20 -112 8 -38 16 -80 19 -92 22 -123 118 -422 185 -579 362 -851
1014 -1502 1870 -1867 161 -68 416 -150 585 -188 54 -12 58 -12 155 -29 36 -6
76 -13 90 -15 14 -3 48 -8 75 -11 28 -3 61 -7 75 -9 59 -8 284 -19 388 -18
718 3 1398 218 1988 629 321 223 664 568 877 884 70 103 137 208 137 215 0 4
8 19 19 33 31 44 147 281 195 398 96 235 186 552 212 744 3 25 10 65 15 90 10
52 7 963 -4 1000 -4 13 -9 42 -12 65 -15 108 -79 365 -127 509 -196 586 -551
1120 -1013 1521 -44 39 -82 72 -85 76 -3 3 -23 18 -45 34 -22 17 -42 32 -45
36 -3 3 -50 37 -105 76 -319 226 -695 405 -1074 512 -76 22 -151 41 -167 44
-16 3 -74 14 -129 25 -55 11 -143 25 -195 32 -52 6 -108 13 -125 16 -33 6
-551 14 -557 9z m-676 -1732 c55 -19 118 -80 118 -113 0 -37 -26 -84 -74 -134
-26 -26 -46 -49 -44 -50 2 -1 20 -9 41 -19 20 -9 46 -31 58 -49 19 -31 20 -42
14 -228 -4 -107 -8 -217 -10 -243 -2 -26 -6 -118 -10 -205 -3 -86 -8 -188 -10
-227 -2 -38 -7 -142 -10 -230 -3 -88 -8 -189 -10 -225 -3 -60 -9 -179 -21
-450 -2 -58 -6 -152 -9 -210 -3 -58 -8 -152 -10 -210 -2 -58 -7 -159 -10 -225
-9 -183 -14 -297 -20 -445 -8 -175 -10 -191 -26 -201 -7 -4 -11 -10 -9 -11 3
-2 17 -11 31 -20 70 -44 74 -167 8 -223 -61 -51 -99 -57 -149 -22 -48 32 -72
69 -77 119 -6 54 16 102 57 126 25 14 26 18 15 37 -13 19 -16 59 -30 420 -14
323 -24 564 -30 675 -3 52 -7 151 -10 220 -8 207 -14 339 -20 455 -3 61 -7
169 -10 240 -3 72 -7 180 -10 240 -3 61 -7 160 -10 220 -2 61 -7 160 -10 220
-17 364 -17 353 6 395 18 32 40 49 97 77 2 0 -17 21 -42 46 -44 45 -76 102
-76 137 0 27 47 78 94 102 79 41 120 43 208 11z m2425 -85 c-1 -3 -67 -74
-147 -158 -80 -84 -149 -159 -154 -168 -10 -17 -15 -3077 -6 -3091 3 -4 135
-7 293 -7 159 1 291 -2 293 -5 2 -3 -8 -17 -23 -30 -49 -46 -163 -201 -217
-297 -92 -163 -168 -389 -175 -522 -1 -17 -20 14 -64 100 -148 295 -255 390
-508 454 -182 46 -227 49 -926 50 -364 0 -664 3 -667 6 -3 3 2 33 10 65 11 39
15 90 12 145 -2 53 1 84 7 84 18 -3 104 -14 153 -19 26 -3 58 -8 72 -10 144
-25 809 -25 960 0 14 2 50 6 80 10 125 13 183 24 190 35 3 4 5 688 4 1519 l-1
1510 -70 73 c-217 226 -241 253 -228 258 21 8 1115 6 1112 -2z m-1870 -506
c96 -27 180 -73 238 -130 46 -45 115 -141 115 -161 0 -15 -22 -18 -64 -9 -72
16 -96 16 -96 1 0 -8 4 -12 9 -9 13 8 61 -11 61 -24 0 -6 -17 -18 -37 -27 -31
-13 -83 -17 -288 -18 -137 -1 -256 1 -263 3 -10 4 -12 29 -8 116 9 162 17 270
22 278 10 15 239 1 311 -20z m-976 -116 c1 -66 2 -137 4 -156 9 -137 12 -126
-32 -140 -48 -16 -130 -65 -155 -93 -89 -102 -74 -223 41 -337 36 -36 94 -80
129 -98 61 -32 62 -34 63 -75 0 -23 2 -51 4 -62 8 -50 13 -275 6 -280 -11 -6
-111 20 -181 47 -142 55 -292 169 -369 282 -146 212 -183 526 -85 732 69 146
246 264 436 290 24 4 44 7 45 8 1 1 22 2 47 2 l46 1 1 -121z m754 -1092 c125
-62 202 -116 295 -208 62 -62 150 -191 150 -221 0 -7 4 -16 9 -19 10 -7 31
-104 35 -168 10 -160 -69 -383 -179 -505 -30 -34 -77 -78 -104 -97 -96 -71
-251 -138 -393 -170 l-26 -6 4 68 c2 37 6 93 7 124 2 32 5 59 8 61 2 2 22 16
44 30 98 65 204 194 245 297 37 93 45 232 20 313 -18 54 -68 133 -111 174 -33
31 -140 86 -167 86 -12 0 -13 19 -8 106 3 58 5 128 6 155 0 47 0 48 28 42 15
-4 77 -32 137 -62z m-708 -383 c1 -43 -2 -51 -20 -57 -95 -29 -169 -89 -211
-172 -54 -106 -64 -217 -29 -316 33 -93 168 -205 280 -232 45 -11 50 -20 52
-97 1 -39 3 -86 6 -103 7 -55 -3 -60 -97 -46 -339 49 -558 310 -516 617 23
166 110 303 242 380 60 35 178 71 244 74 l48 2 1 -50z"/>
</g>
</svg>
